<svg version="1" xmlns="http://www.w3.org/2000/svg" width="1882.667" height="1882.667" viewBox="0 0 1412.000000 1412.000000"><path d="M146.9 544.4c-.2.2-3.3.7-6.9 1.1-3.5.3-6.7.8-7 1-.3.2-2.6.6-5 1-6 .9-25.3 7.2-31.2 10.1-2.7 1.4-4.8 2.1-4.8 1.8 0-.4-.8 0-1.7.8-1 .8-4.3 2.8-7.3 4.4-8.3 4.4-18.2 11.2-26 17.9-7 6-21.9 21.8-21.4 22.6.3.5.1.9-.5.9-1.7 0-11.6 15-17.5 26.5-3.1 6-7.2 15.6-9.1 21.2-3.2 9.6-3.7 11.4-5 18-.3 1.6-.8 3.5-1.1 4.3-2.5 6.6-2.5 55.8 0 59.9.3.3.7 2.6 1.1 5 .7 5.1 6.4 22.4 9.6 29.6 1.2 2.7 2.3 5.3 2.3 5.7.1.3.5 1 .9 1.5.5.4 1.5 2.2 2.2 4 2.2 5.1 12.4 20.2 19.6 28.8 14.5 17.4 32.5 31.4 53.2 41.3 5.9 2.9 11.3 5.2 12 5.2.7 0 1.7.4 2.2.9.9.8 13.3 4.8 17.7 5.6 1.1.2 2.7.6 3.6.9 1.8.6 3.7.9 15.2 2.6 11.5 1.6 44.7.4 52.5-2 1.7-.5 4.1-1.1 5.5-1.4 4.6-.9 12.6-3.3 14.5-4.4 1.1-.5 2.4-1 2.8-1 1.8 0 11-4.1 20.7-9.2 2.5-1.3 4.7-2.4 5-2.5.3 0 1.9-1 3.7-2.3 1.7-1.2 3.6-2.2 4.2-2.2.6 0 1.1-.3 1.1-.8 0-.4 1.8-1.8 4-3.2 2.2-1.4 4-2.8 4-3.2 0-.5.4-.8.9-.8 2.5 0 24.7-21.9 29.6-29.2.6-.9 2.9-4.2 5.2-7.5 8.7-12.4 18.7-33.3 21.8-45.3.2-.8.8-3 1.4-4.8.5-1.7.7-3.2.4-3.2-.3 0 0-.6.6-1.3.6-.8.9-1.6.6-1.9-.3-.2 0-1.9.5-3.8 2.4-8.2 3.4-39.5 1.7-50.5-.4-2.8-.8-5.7-.8-6.5-.2-3-5.2-22.7-7.1-27.7-1-2.9-1.9-5.5-1.9-5.8.1-.3-2-4.6-4.5-9.7-11.4-22.7-23.8-38.6-43.4-55.8-13.9-12.1-45.8-28.6-61.2-31.5-1-.2-2.1-.6-2.6-.8-.4-.3-2.3-.8-4.2-1.1-1.9-.3-5.7-1-8.5-1.5-2.7-.5-5.3-.7-5.7-.5-.3.2-.9.1-1.1-.3-.5-.8-34-1.6-34.8-.9zm20.6 87.1c2.8.2 5.1.4 5.3.5.1.2 1.4.3 3 .4 8.2.6 16.7 2 28.7 4.6 5 1.1 10.1 2.2 11.5 2.4 1.4.3 3.9 1 5.5 1.6 1.7.7 3.9 1.3 5 1.5 3.5.6 5 1 6 1.6.8.5 10.6 4 12.5 4.4 5.5 1.4 27.5 13 30.7 16.2 5.9 5.8 5.4 15.4-1.2 21.2-5.7 5-10.6 4.6-22.9-1.8-16-8.3-35-14.9-54.6-18.7-1.4-.3-3.2-.7-4-.9-.8-.3-3.7-.7-6.5-1-2.7-.3-7.5-1-10.5-1.4-3-.5-7.1-1-9-1.1-1.9-.1-5.3-.3-7.5-.5-5.2-.5-37.5-.5-44 0-6.7.5-15.7 1.5-17.5 2-.8.2-3.6.6-6.2 1-2.6.3-9.1 1.7-14.5 3-11.6 3-14.7 3.1-19.2.7-4.6-2.2-8.3-9.3-7.5-14 1.5-8.9 4.9-11.5 20.2-15.3 6.5-1.6 13.1-3.1 14.7-3.3 1.7-.2 5.3-.7 8-1.2 2.8-.4 6.1-.8 7.5-1 1.4-.1 2.5-.3 2.5-.4 0-.1 4.3-.4 9.5-.6 5.2-.3 9.6-.7 9.9-.9.4-.5 36.1.3 44.6 1zm-5.5 55.8c1.9.2 4.9.7 6.5 1 1.7.4 5.2.9 7.8 1.2 2.7.2 5.2.7 5.6 1 .5.2 2.3.7 4.2.9 5.3.8 16 3.5 20.2 5.1 2 .8 3.7 1.2 3.7.9 0-.4.6-.2 1.3.3.9.8 6.7 3.1 9.7 3.8 1.6.5 5.9 2.4 16.9 7.8 12.1 5.9 19 11.1 19.2 14.5 0 .9.2 2.5.4 3.4.2 1-.1 2-.6 2.4-.5.3-.7.9-.4 1.4.3.5-1 2.4-2.8 4.2-5.3 5.3-11.4 4.9-20.7-1.2-2-1.4-18.8-9.1-20.3-9.4-.7-.1-2.9-1-5.1-1.9-2.1-.9-4.4-1.7-5-1.7-.6 0-3.8-1-7.1-2.1s-7.1-2.2-8.5-2.4c-1.4-.2-7.4-1.3-13.5-2.5-6-1.1-11.5-1.8-12.2-1.6-.7.3-1.5.1-1.8-.3-.5-1-48.4-1.3-49.9-.4-.4.3-2.5.7-4.5.9-6.8.6-16.2 2.4-18.2 3.5-.9.4-1.9.6-2.1.4-.3-.3-2 .1-3.9.8-9.7 4-20.1-1.8-19.5-10.9.3-3.8 2.7-8 5.5-9.7 5.1-3 30.6-8.6 41.9-9.2 2.9-.1 5.5-.5 5.9-.8.6-.6 41.4-.1 47.3.6zm3.5 53.1c2.2.3 5.1.8 6.5 1.2 1.4.3 3.6.8 5 1 20.5 3.5 55.9 18.6 58.9 25.1 1.9 4.2 1.3 7.9-1.9 11.3-2.7 2.9-3.5 3.2-7 2.7-2.2-.3-6.1-1.8-8.7-3.4-5.6-3.3-23.2-11.3-24.6-11.2-.1 0-1.4-.4-3-1-1.5-.6-3.8-1.3-5-1.6-1.2-.2-4-.9-6.2-1.5s-5.3-1.3-7-1.5c-1.6-.3-4.1-.7-5.5-1-9.8-2.1-37.7-2.7-52-1.2-4.1.4-8.2.8-9 .8-.8.1-3.4.5-5.8 1s-6.1 1.2-8.4 1.4c-2.2.3-4.5.8-4.9 1.1-.5.2-3.5.7-6.7 1-5.2.6-6.1.4-8.7-1.9-3.8-3.2-4.3-9.9-1-13.4 1.9-2.1 17-6.7 18.6-5.7.4.2 1 0 1.4-.6.4-.6 1-.8 1.5-.5.5.3 3 .1 5.7-.5 2.6-.5 6.8-1.2 9.1-1.4 2.4-.2 4.6-.7 4.9-.9.6-.7 48.8-.1 53.8.7zM365 705.5V860h42.4c43.7 0 51.4-.6 63.4-4.6 13.1-4.3 24.8-13.5 30.6-23.9 3.7-6.7 7.1-17.4 9.3-29.2 1.6-9 1.8-17.4 1.8-98.8 0-79.3-.2-90.1-1.7-99.5-2.9-17.7-7-28-14.1-35.7-7.8-8.5-16.9-13.1-31.2-15.8-6.4-1.2-17.2-1.5-54.2-1.5H365v154.5zm76.9-116c15.1 3.6 20.6 10.6 23.1 29.8.8 5.5 1 34.5.7 89.2-.4 88.8-.4 89.6-6.5 100.9-5.6 10.2-11.9 12.7-33.9 13.4l-16.3.4V588h13.3c8.2 0 15.6.6 19.6 1.5zM529 705.5V860h120v-38h-76V722h71v-38h-71v-95h76v-38H529v154.5zM664 705.5V860h121v-38h-77V722h71v-38h-71v-95h77v-38H664v154.5zM800 569.5V588l48.4.2 48.4.3-7 17c-8.2 19.9-19.7 47.8-30.1 73-11.5 27.8-40.2 97.3-52.6 127.3l-7.1 17.3V860h140v-37h-47.5c-26.1 0-47.5-.2-47.5-.4 0-.7 4.9-13.1 10.5-26.6 4.4-10.9 10.2-25.1 27-66.5 4-9.9 12.8-31.5 19.5-48 6.7-16.5 15-37 18.5-45.5 6.1-15.1 12.7-31.5 14.4-35.5 5.2-12.2 5.1-11.6 5.1-30.9V551H800v18.5zM959 705.5V860h138V551h-43v266h-8v-84h-36v84h-8V551h-43v154.5zM1118 705.5V860h121v-38h-77V722h71v-38h-71v-95h77v-38h-121v154.5zM1263 705.4V860h42.5c37.8 0 43.5-.2 52.4-1.9 14.4-2.8 24.4-7.4 32.5-15 14-13.1 20.8-37.9 21-77.1l.1-18.6-6.1-12.4c-10.4-21.1-19.6-31.7-33.1-38.3-4.1-2-5.6-3.7-3.2-3.7 1.7 0 10.9-6.5 17.3-12.1 6.4-5.8 10.7-13.6 12.7-23 .6-3 1.6-6.4 2.1-7.6.7-1.3.9-9.7.6-22.5-.5-18.2-.8-21.2-3.2-29.3-1.5-5-3.8-11.3-5.1-14-5.6-11.6-16.9-22-32.5-29.8l-6.5-3.2-45.7-.3-45.8-.3v154.5zm76.9-115.8c8.2 1.8 15.4 6.1 17.7 10.5 4.7 9.1 5.6 13.9 6.1 33 .5 15.2.3 20-1.1 26.1-2 8.8-6.2 16-10.7 18.4-8.8 4.5-13.7 5.4-29.6 5.4H1307v-95h13.1c8.2 0 15.5.6 19.8 1.6zm4.1 144c7.9 2.3 14 8.7 17.1 17.9 2.1 6.3 2.3 8.7 2.3 23-.1 28.6-5.3 40.8-19.5 46.1-3.2 1.2-8.9 1.8-20.6 2.2l-16.3.4v-92.4l15.8.6c10.3.3 17.6 1.1 21.2 2.2z"/></svg>